<svg width="887" height="367" viewBox="0 0 887 367" fill="none" xmlns="http://www.w3.org/2000/svg">
<g filter="url(#filter0_d_1_464)">
<path d="M402.04 184V134.86H412.05L429.158 166.71L446.266 134.86H456.276V184H444.446V159.521L431.342 184H426.974L413.87 159.521V184H402.04ZM459.038 184V173.717C460.828 174.051 462.208 174.035 463.179 173.671C464.149 173.277 464.877 172.519 465.363 171.396C465.878 170.244 466.318 168.682 466.682 166.71C467.168 164.101 467.592 161.053 467.956 157.564C468.351 154.076 468.684 150.391 468.957 146.508C469.23 142.595 469.473 138.712 469.685 134.86H506.813V184H494.437V146.417H480.514C480.393 147.994 480.226 149.875 480.014 152.059C479.832 154.243 479.619 156.518 479.377 158.884C479.164 161.22 478.922 163.464 478.649 165.618C478.376 167.741 478.088 169.561 477.784 171.078C477.056 174.93 475.979 177.964 474.554 180.178C473.128 182.392 471.172 183.803 468.684 184.41C466.197 185.047 462.982 184.91 459.038 184ZM538.23 185.365C533.346 185.365 529.266 184.228 525.99 181.952C522.714 179.677 520.242 176.583 518.574 172.67C516.936 168.757 516.117 164.344 516.117 159.43C516.117 154.516 516.936 150.102 518.574 146.189C520.212 142.276 522.623 139.182 525.808 136.907C528.993 134.632 532.921 133.495 537.593 133.495C542.294 133.495 546.389 134.617 549.878 136.862C553.366 139.107 556.066 142.185 557.977 146.098C559.918 149.981 560.889 154.425 560.889 159.43C560.889 164.344 559.933 168.757 558.022 172.67C556.141 176.583 553.502 179.677 550.105 181.952C546.708 184.228 542.749 185.365 538.23 185.365ZM514.024 205.84V134.86H524.944V168.53H526.491V205.84H514.024ZM536.228 174.354C538.897 174.354 541.081 173.687 542.78 172.352C544.478 171.017 545.737 169.228 546.556 166.983C547.375 164.708 547.785 162.19 547.785 159.43C547.785 156.7 547.36 154.213 546.511 151.968C545.661 149.693 544.342 147.888 542.552 146.553C540.793 145.188 538.533 144.506 535.773 144.506C533.194 144.506 531.101 145.128 529.494 146.371C527.916 147.615 526.764 149.359 526.036 151.604C525.308 153.849 524.944 156.457 524.944 159.43C524.944 162.403 525.308 165.011 526.036 167.256C526.764 169.501 527.947 171.245 529.585 172.488C531.253 173.732 533.467 174.354 536.228 174.354ZM561.801 194.92V174.445C564.409 174.445 566.26 173.535 567.352 171.715C568.474 169.895 569.354 166.649 569.991 161.978C570.355 159.278 570.658 156.442 570.901 153.469C571.174 150.497 571.401 147.448 571.583 144.324C571.765 141.2 571.932 138.045 572.084 134.86H610.031V174.445H615.036V194.92H603.388V184H573.449V194.92H561.801ZM577.635 174.445H597.655V144.415H582.822C582.731 146.083 582.625 147.752 582.503 149.42C582.412 151.088 582.291 152.741 582.139 154.379C582.018 156.017 581.897 157.61 581.775 159.157C581.654 160.674 581.517 162.13 581.366 163.525C581.093 166.194 580.714 168.363 580.228 170.031C579.743 171.7 578.878 173.171 577.635 174.445Z" fill="white"/>
</g>
<g filter="url(#filter1_d_1_464)">
<line x1="410" y1="210" x2="615" y2="210" stroke="white" stroke-width="28"/>
</g>
<g filter="url(#filter2_d_1_464)">
<path d="M355.876 214.984V110.472L363.052 123.352L331.956 138.624L325.7 111.208L361.58 93.36H386.604V214.984H355.876ZM328.276 224V196.4H411.812V224H328.276Z" fill="white"/>
</g>
<g filter="url(#filter3_d_1_464)">
<rect x="471.793" y="195.639" width="188" height="66" rx="5" transform="rotate(-6.08865 471.793 195.639)" fill="#2E025A"/>
</g>
<path d="M507.824 234.034L505.533 212.556L514.407 211.609C514.616 211.587 514.886 211.569 515.216 211.553C515.545 211.528 515.852 211.526 516.135 211.546C517.398 211.602 518.467 211.906 519.34 212.456C520.223 213.005 520.911 213.747 521.403 214.68C521.903 215.602 522.217 216.655 522.343 217.838C522.468 219.011 522.384 220.106 522.09 221.123C521.795 222.13 521.274 222.995 520.526 223.719C519.789 224.441 518.814 224.962 517.601 225.283C517.327 225.352 517.021 225.415 516.685 225.471C516.359 225.526 516.097 225.564 515.898 225.585L510.618 226.148L511.418 233.651L507.824 234.034ZM510.26 222.792L515.391 222.245C515.59 222.224 515.813 222.19 516.059 222.144C516.306 222.097 516.53 222.033 516.732 221.951C517.313 221.738 517.752 221.425 518.05 221.011C518.358 220.596 518.556 220.143 518.644 219.65C518.742 219.157 518.767 218.682 518.718 218.225C518.67 217.767 518.545 217.308 518.345 216.846C518.154 216.374 517.864 215.967 517.476 215.627C517.097 215.285 516.602 215.071 515.989 214.986C515.774 214.948 515.542 214.938 515.292 214.954C515.041 214.961 514.817 214.975 514.618 214.996L509.487 215.544L510.26 222.792ZM532.096 231.445L534.313 225.356L525.226 210.455L529.283 210.023L535.788 221.367L539.918 208.888L543.751 208.479L535.929 231.036L532.096 231.445ZM550.643 229.467L548.352 207.989L562.715 206.457L563.075 209.827L552.306 210.976L552.799 215.6L558.079 215.037C558.278 215.015 558.542 214.997 558.873 214.982C559.212 214.956 559.522 214.943 559.804 214.943C561.022 214.954 562.067 215.23 562.939 215.77C563.821 216.31 564.517 217.035 565.027 217.946C565.546 218.856 565.866 219.878 565.987 221.012C566.108 222.145 566.016 223.216 565.711 224.224C565.406 225.222 564.878 226.078 564.13 226.791C563.39 227.494 562.421 227.979 561.223 228.248C560.948 228.307 560.647 228.364 560.321 228.419C559.994 228.464 559.726 228.498 559.517 228.52L550.643 229.467ZM553.878 225.713L559.009 225.165C559.207 225.144 559.43 225.11 559.677 225.064C559.923 225.017 560.149 224.963 560.353 224.901C561.228 224.617 561.8 224.133 562.069 223.451C562.338 222.769 562.436 222.084 562.363 221.398C562.289 220.702 562.049 220.054 561.643 219.454C561.236 218.843 560.574 218.491 559.659 218.398C559.445 218.371 559.213 218.365 558.964 218.382C558.713 218.388 558.488 218.402 558.289 218.423L553.158 218.971L553.878 225.713ZM569.104 227.498L568.782 224.485C569.263 224.464 569.662 224.386 569.98 224.251C570.296 224.107 570.548 223.874 570.735 223.552C570.93 223.22 571.083 222.766 571.193 222.191C571.301 221.606 571.39 220.878 571.458 220.006C571.556 218.758 571.609 217.465 571.617 216.127C571.634 214.777 571.629 213.456 571.601 212.161C571.573 210.857 571.528 209.635 571.467 208.495C571.405 207.355 571.351 206.37 571.302 205.541L585.681 204.007L587.972 225.485L584.377 225.868L582.446 207.761L574.988 208.557C575.009 209.228 575.036 210.04 575.067 210.992C575.107 211.933 575.131 212.956 575.138 214.062C575.155 215.166 575.147 216.314 575.113 217.504C575.089 218.693 575.028 219.866 574.93 221.023C574.841 222.078 574.702 223.034 574.512 223.889C574.32 224.734 574.019 225.45 573.609 226.036C573.208 226.612 572.644 227.029 571.918 227.288C571.201 227.545 570.263 227.615 569.104 227.498ZM594.539 224.784L592.248 203.306L606.12 201.827L606.479 205.198L596.202 206.294L596.767 211.589L605.254 210.683L605.614 214.054L597.127 214.96L597.774 221.03L608.051 219.934L608.411 223.305L594.539 224.784ZM614.376 222.669L612.085 201.19L615.724 200.802L617.339 215.941L625.687 199.739L629.327 199.351L631.618 220.829L627.978 221.218L626.364 206.078L618.015 222.28L614.376 222.669ZM620.497 198.453C619.661 198.542 618.879 198.419 618.149 198.085C617.43 197.749 616.83 197.265 616.35 196.632C615.869 195.99 615.584 195.251 615.495 194.415L618.299 194.116C618.35 194.594 618.558 194.984 618.922 195.287C619.295 195.579 619.72 195.699 620.197 195.649C620.675 195.598 621.06 195.391 621.353 195.028C621.655 194.653 621.781 194.228 621.73 193.75L624.534 193.451C624.623 194.287 624.5 195.069 624.166 195.799C623.83 196.518 623.341 197.118 622.698 197.599C622.056 198.08 621.322 198.365 620.497 198.453Z" fill="white"/>
<defs>
<filter id="filter0_d_1_464" x="395.04" y="130.495" width="226.996" height="86.345" filterUnits="userSpaceOnUse" color-interpolation-filters="sRGB">
<feFlood flood-opacity="0" result="BackgroundImageFix"/>
<feColorMatrix in="SourceAlpha" type="matrix" values="0 0 0 0 0 0 0 0 0 0 0 0 0 0 0 0 0 0 127 0" result="hardAlpha"/>
<feOffset dy="4"/>
<feGaussianBlur stdDeviation="3.5"/>
<feComposite in2="hardAlpha" operator="out"/>
<feColorMatrix type="matrix" values="0 0 0 0 0 0 0 0 0 0 0 0 0 0 0 0 0 0 0.37 0"/>
<feBlend mode="normal" in2="BackgroundImageFix" result="effect1_dropShadow_1_464"/>
<feBlend mode="normal" in="SourceGraphic" in2="effect1_dropShadow_1_464" result="shape"/>
</filter>
<filter id="filter1_d_1_464" x="403" y="193" width="219" height="42" filterUnits="userSpaceOnUse" color-interpolation-filters="sRGB">
<feFlood flood-opacity="0" result="BackgroundImageFix"/>
<feColorMatrix in="SourceAlpha" type="matrix" values="0 0 0 0 0 0 0 0 0 0 0 0 0 0 0 0 0 0 127 0" result="hardAlpha"/>
<feOffset dy="4"/>
<feGaussianBlur stdDeviation="3.5"/>
<feComposite in2="hardAlpha" operator="out"/>
<feColorMatrix type="matrix" values="0 0 0 0 0 0 0 0 0 0 0 0 0 0 0 0 0 0 0.37 0"/>
<feBlend mode="normal" in2="BackgroundImageFix" result="effect1_dropShadow_1_464"/>
<feBlend mode="normal" in="SourceGraphic" in2="effect1_dropShadow_1_464" result="shape"/>
</filter>
<filter id="filter2_d_1_464" x="318.7" y="90.36" width="100.112" height="144.64" filterUnits="userSpaceOnUse" color-interpolation-filters="sRGB">
<feFlood flood-opacity="0" result="BackgroundImageFix"/>
<feColorMatrix in="SourceAlpha" type="matrix" values="0 0 0 0 0 0 0 0 0 0 0 0 0 0 0 0 0 0 127 0" result="hardAlpha"/>
<feOffset dy="4"/>
<feGaussianBlur stdDeviation="3.5"/>
<feComposite in2="hardAlpha" operator="out"/>
<feColorMatrix type="matrix" values="0 0 0 0 0 0 0 0 0 0 0 0 0 0 0 0 0 0 0.37 0"/>
<feBlend mode="normal" in2="BackgroundImageFix" result="effect1_dropShadow_1_464"/>
<feBlend mode="normal" in="SourceGraphic" in2="effect1_dropShadow_1_464" result="shape"/>
</filter>
<filter id="filter3_d_1_464" x="421.295" y="129.2" width="294.937" height="186.565" filterUnits="userSpaceOnUse" color-interpolation-filters="sRGB">
<feFlood flood-opacity="0" result="BackgroundImageFix"/>
<feColorMatrix in="SourceAlpha" type="matrix" values="0 0 0 0 0 0 0 0 0 0 0 0 0 0 0 0 0 0 127 0" result="hardAlpha"/>
<feOffset dy="4"/>
<feGaussianBlur stdDeviation="25.5"/>
<feComposite in2="hardAlpha" operator="out"/>
<feColorMatrix type="matrix" values="0 0 0 0 0 0 0 0 0 0 0 0 0 0 0 0 0 0 0.52 0"/>
<feBlend mode="normal" in2="BackgroundImageFix" result="effect1_dropShadow_1_464"/>
<feBlend mode="normal" in="SourceGraphic" in2="effect1_dropShadow_1_464" result="shape"/>
</filter>
</defs>
</svg>
