<svg width="14" height="16" viewBox="0 0 14 16" fill="none" xmlns="http://www.w3.org/2000/svg">
<g opacity="0.5">
<path d="M6.69577 8.29325C7.52363 8.29325 8.19475 7.66281 8.19475 6.88512C8.19475 6.10743 7.52363 5.47699 6.69577 5.47699C5.86791 5.47699 5.19679 6.10743 5.19679 6.88512C5.19679 7.66281 5.86791 8.29325 6.69577 8.29325Z" fill="#7A0CE8"/>
<path d="M6.69577 0.783203C4.97304 0.783203 3.32086 1.42608 2.1027 2.57042C0.884547 3.71475 0.200195 5.26679 0.200195 6.88512C0.200195 9.78588 3.54792 13.2687 6.361 15.6813L6.70576 15.977L7.04054 15.6719C10.1534 12.8556 13.1913 9.86567 13.1913 6.88512C13.1913 6.08381 13.0233 5.29034 12.6969 4.55002C12.3705 3.8097 11.892 3.13703 11.2888 2.57042C10.6857 2.0038 9.9696 1.55433 9.18152 1.24768C8.39344 0.941032 7.54878 0.783203 6.69577 0.783203ZM6.69577 9.23201C6.20165 9.23201 5.71863 9.09437 5.30779 8.83649C4.89695 8.57861 4.57673 8.21208 4.38764 7.78324C4.19855 7.3544 4.14908 6.88251 4.24548 6.42726C4.34188 5.97201 4.57981 5.55384 4.92921 5.22562C5.2786 4.8974 5.72376 4.67388 6.20838 4.58332C6.693 4.49277 7.19532 4.53924 7.65183 4.71687C8.10833 4.8945 8.49851 5.19531 8.77303 5.58125C9.04755 5.9672 9.19407 6.42095 9.19407 6.88512C9.19407 7.50755 8.93086 8.10449 8.46234 8.54462C7.99381 8.98474 7.35836 9.23201 6.69577 9.23201Z" fill="#7A0CE8"/>
</g>
</svg>
