<svg width="12" height="14" viewBox="0 0 12 14" fill="none" xmlns="http://www.w3.org/2000/svg">
<path d="M10.0984 8.54128C10.0111 8.42969 9.90319 8.34017 9.78189 8.27882C9.66059 8.21746 9.52876 8.18571 9.39537 8.18571C9.26198 8.18571 9.13016 8.21746 9.00886 8.27882C8.88756 8.34017 8.77961 8.42969 8.69238 8.54128C8.36391 8.90011 8.03545 9.26337 7.711 9.63106C7.68049 9.67696 7.63515 9.70811 7.58443 9.71801C7.5337 9.72791 7.48149 9.71581 7.43861 9.68423C7.22631 9.55576 6.99799 9.45387 6.7937 9.31211C5.85624 8.64017 5.02529 7.80201 4.33423 6.8313C3.97342 6.36086 3.6753 5.83574 3.44897 5.27192C3.42436 5.22517 3.41607 5.17007 3.42566 5.11703C3.43525 5.06398 3.46207 5.01665 3.50105 4.98397C3.82951 4.62957 4.14996 4.27074 4.47442 3.90748C4.58031 3.8102 4.66553 3.68831 4.72401 3.5505C4.7825 3.41268 4.81282 3.26232 4.81282 3.11008C4.81282 2.95783 4.7825 2.80746 4.72401 2.66964C4.66553 2.53183 4.58031 2.40994 4.47442 2.31266L3.70133 1.45767C3.43696 1.16529 3.17258 0.868478 2.9002 0.571666C2.81224 0.461362 2.70406 0.373024 2.58285 0.312513C2.46165 0.252002 2.33019 0.220703 2.1972 0.220703C2.06422 0.220703 1.93276 0.252002 1.81155 0.312513C1.69034 0.373024 1.58217 0.461362 1.49421 0.571666C1.16174 0.930498 0.845291 1.30261 0.50481 1.65701C0.20505 1.96968 0.0257364 2.39805 0.00410929 2.85313C-0.0244256 3.59946 0.0959226 4.34359 0.356609 5.03271C0.856224 6.46525 1.57579 7.79159 2.48361 8.95327C3.67847 10.5401 5.1656 11.8269 6.84577 12.7277C7.5924 13.16 8.40943 13.4236 9.24917 13.5029C9.53046 13.5379 9.81524 13.4983 10.0799 13.3873C10.3446 13.2764 10.5816 13.0973 10.7713 12.865C11.0517 12.515 11.3682 12.1961 11.6686 11.8638C11.7725 11.7661 11.8559 11.6445 11.9131 11.5076C11.9704 11.3707 12 11.2217 12 11.0708C12 10.92 11.9704 10.771 11.9131 10.634C11.8559 10.4971 11.7725 10.3756 11.6686 10.2779C11.1505 9.699 10.6271 9.12014 10.0984 8.54128Z" fill="white"/>
</svg>
